<svg xmlns="http://www.w3.org/2000/svg" xmlns:xlink="http://www.w3.org/1999/xlink" aria-hidden="true" role="img" class="iconify iconify--logos" width="31.88" height="32" preserveAspectRatio="xMidYMid meet" viewBox="0 0 256 257"><defs><linearGradient id="IconifyId181e550186711319211" x1="0%" x2="100%" y1="0%" y2="100%"><stop offset="0%" stop-color="#41D1FF"></stop><stop offset="100%" stop-color="#BD34FE"></stop></linearGradient><linearGradient id="IconifyId181e550186711319212" x1="0%" x2="100%" y1="0%" y2="100%"><stop offset="0%" stop-color="#FFEA83"></stop><stop offset="8.333%" stop-color="#FFDD35"></stop><stop offset="100%" stop-color="#FFA800"></stop></linearGradient></defs><path fill="url(#IconifyId181e550186711319211)" d="M255.153 37.937L134.897 252.976c-2.483 4.44-8.862 4.466-11.382.048L.875 37.958c-2.746-4.814 1.371-10.646 6.827-9.67l120.385 21.517a6.537 6.537 0 0 0 2.322-.004L248.314 28.27c5.44-.954 9.545 4.862 6.839 9.667z"></path><path fill="url(#IconifyId181e550186711319212)" d="M185.432 27.217L114.21 7.942c-3.161-.855-6.445 1.151-6.949 4.448l-12.756 83.197c-.246 1.603.766 3.136 2.326 3.512l101.745 24.572c1.787.431 3.456-1.13 3.111-2.925l-16.255-84.51c-.636-3.308-3.903-5.328-7-4.493z"></path></svg>
